{
	"asset":{
		"version":"2.0",
		"generator":"Created using the official Cinema 4D glTF Exporter 1.000x284978"
	},
	"scenes":[{
		"nodes":[0]
	}],
	"nodes":[{
		"name":"Default",
		"children":[1,
		2,
		3]
	},
	{
		"name":"Default-aiStandardSurface1SG",
		"mesh":0
	},
	{
		"name":"Default-standardSurface3SG",
		"mesh":1
	},
	{
		"name":"Default-standardSurface2SG",
		"mesh":2
	}],
	"meshes":[{
		"name":"Default-aiStandardSurface1SG",
		"primitives":[{
			"attributes":{
				"POSITION":1,
				"NORMAL":2,
				"TEXCOORD_0":3
			},
			"indices":0,
			"material":0
		}]
	},
	{
		"name":"Default-standardSurface3SG",
		"primitives":[{
			"attributes":{
				"POSITION":5,
				"NORMAL":6,
				"TEXCOORD_0":7
			},
			"indices":4,
			"material":1
		}]
	},
	{
		"name":"Default-standardSurface2SG",
		"primitives":[{
			"attributes":{
				"POSITION":9,
				"NORMAL":10,
				"TEXCOORD_0":11
			},
			"indices":8,
			"material":2
		}]
	}],
	"accessors":[{
		"bufferView":0,
		"type":"SCALAR",
		"componentType":5123,
		"count":126942,
		"byteOffset":0,
		"min":[0],
		"max":[39926]
	},
	{
		"bufferView":1,
		"type":"VEC3",
		"componentType":5126,
		"count":39927,
		"byteOffset":0,
		"min":[-9.718793869018555,
		0.5915020108222961,
		-2.1885008811950685],
		"max":[12.78190803527832,
		7.656989097595215,
		2.1619760990142824]
	},
	{
		"bufferView":1,
		"type":"VEC3",
		"componentType":5126,
		"count":39927,
		"byteOffset":12,
		"min":[-1.0,
		-1.0,
		-1.0],
		"max":[1.0,
		1.0,
		1.0]
	},
	{
		"bufferView":1,
		"type":"VEC2",
		"componentType":5126,
		"count":39927,
		"byteOffset":24,
		"min":[0.032579999417066577,
		-0.9880880117416382],
		"max":[1.9929089546203614,
		0.953760027885437]
	},
	{
		"bufferView":2,
		"type":"SCALAR",
		"componentType":5123,
		"count":288,
		"byteOffset":0,
		"min":[0],
		"max":[56]
	},
	{
		"bufferView":3,
		"type":"VEC3",
		"componentType":5126,
		"count":57,
		"byteOffset":0,
		"min":[-9.259714126586914,
		1.9006949663162232,
		-1.1365339756011963],
		"max":[-8.992386817932129,
		4.176959037780762,
		1.1397299766540528]
	},
	{
		"bufferView":3,
		"type":"VEC3",
		"componentType":5126,
		"count":57,
		"byteOffset":12,
		"min":[-1.0,
		-0.8009687662124634,
		-0.8009687662124634],
		"max":[-0.5985313057899475,
		0.8009687662124634,
		0.8009687662124634]
	},
	{
		"bufferView":3,
		"type":"VEC2",
		"componentType":5126,
		"count":57,
		"byteOffset":24,
		"min":[1.0445079803466797,
		-0.153997004032135],
		"max":[1.1713049411773682,
		-0.027201000601053239]
	},
	{
		"bufferView":4,
		"type":"SCALAR",
		"componentType":5123,
		"count":288,
		"byteOffset":0,
		"min":[0],
		"max":[56]
	},
	{
		"bufferView":5,
		"type":"VEC3",
		"componentType":5126,
		"count":57,
		"byteOffset":0,
		"min":[8.510750770568848,
		1.5956569910049439,
		-1.4532690048217774],
		"max":[8.849263191223145,
		4.478055000305176,
		1.4291290044784547]
	},
	{
		"bufferView":5,
		"type":"VEC3",
		"componentType":5126,
		"count":57,
		"byteOffset":12,
		"min":[0.5985313057899475,
		-0.8009687662124634,
		-0.8009687662124634],
		"max":[1.0,
		0.8009687662124634,
		0.8009687662124634]
	},
	{
		"bufferView":5,
		"type":"VEC2",
		"componentType":5126,
		"count":57,
		"byteOffset":24,
		"min":[1.226728916168213,
		-0.17737999558448792],
		"max":[1.387289047241211,
		-0.016819000244140626]
	}],
	"bufferViews":[{
		"buffer":0,
		"byteOffset":0,
		"byteLength":253884,
		"target":34963
	},
	{
		"buffer":0,
		"byteOffset":253884,
		"byteLength":1277664,
		"target":34962,
		"byteStride":32
	},
	{
		"buffer":1,
		"byteOffset":0,
		"byteLength":576,
		"target":34963
	},
	{
		"buffer":1,
		"byteOffset":576,
		"byteLength":1824,
		"target":34962,
		"byteStride":32
	},
	{
		"buffer":2,
		"byteOffset":0,
		"byteLength":576,
		"target":34963
	},
	{
		"buffer":2,
		"byteOffset":576,
		"byteLength":1824,
		"target":34962,
		"byteStride":32
	}],
	"buffers":[{
		"uri":"data:application/octet-stream;base64,",
		"byteLength":1531548
	},
	{
		"uri":"data:application/octet-stream;base64,",
		"byteLength":2400
	},
	{
		"uri":"data:application/octet-stream;base64,",
		"byteLength":2400
	}],
	"materials":[{
		"pbrMetallicRoughness":{
			"baseColorFactor":[0.3,
			0.3,
			0.3,
			1.0],
			"metallicFactor":0.0,
			"roughnessFactor":0.5
		},
		"emissiveFactor":[0.0,
		0.0,
		0.0],
		"alphaMode":"OPAQUE",
		"doubleSided":false,
		"name":"aiStandardSurface1SG"
	},
	{
		"pbrMetallicRoughness":{
			"baseColorFactor":[0.24,
			0.24,
			0.24,
			1.0],
			"metallicFactor":0.0,
			"roughnessFactor":0.5
		},
		"emissiveFactor":[0.0,
		0.0,
		0.0],
		"alphaMode":"OPAQUE",
		"doubleSided":false,
		"name":"standardSurface3SG"
	},
	{
		"pbrMetallicRoughness":{
			"baseColorFactor":[0.22,
			0.22,
			0.22,
			1.0],
			"metallicFactor":0.0,
			"roughnessFactor":0.5
		},
		"emissiveFactor":[0.0,
		0.0,
		0.0],
		"alphaMode":"OPAQUE",
		"doubleSided":false,
		"name":"standardSurface2SG"
	}]
}